RBDS024runT45_grf
version=1
nRows=18
nColumns=19
inDegrees=no
endheader
time	ground_force_r_vx	ground_force_r_vy	ground_force_r_vz	ground_force_r_px	ground_force_r_py	ground_force_r_pz	ground_force_r_mx	ground_force_r_my	ground_force_r_mz	ground_force_l_vx	ground_force_l_vy	ground_force_l_vz	ground_force_l_px	ground_force_l_py	ground_force_l_pz	ground_force_l_mx	ground_force_l_my	ground_force_l_mz
     22.49800000	    163.69316759	    286.76157456	     18.11699065	      1.57179313	      0.00000000	      1.03487764	     -0.00000000	      3.07675169	      0.00000000	      0.00000000	      0.00000000	      0.00000000	      0.00000000	      0.00000000	      0.00000000	      0.00000000	      0.00000000	      0.00000000
     22.49900000	    156.94992152	    268.62726367	     17.05104414	      1.56944655	      0.00000000	      1.03474655	     -0.00000000	      3.32284217	      0.00000000	      0.00000000	      0.00000000	      0.00000000	      0.00000000	      0.00000000	      0.00000000	      0.00000000	      0.00000000	      0.00000000
     22.50000000	    150.20667544	    250.49295279	     15.98509762	      1.56709997	      0.00000000	      1.03461547	     -0.00000000	      3.56893265	      0.00000000	      0.00000000	      0.00000000	      0.00000000	      0.00000000	      0.00000000	      0.00000000	      0.00000000	      0.00000000	      0.00000000
     22.50100000	    143.58254595	    234.16177385	     14.88027849	      1.56495568	      0.00000000	      1.03447097	     -0.00000000	      3.83635856	      0.00000000	      0.00000000	      0.00000000	      0.00000000	      0.00000000	      0.00000000	      0.00000000	      0.00000000	      0.00000000	      0.00000000
     22.50200000	    136.95841646	    217.83059492	     13.77545936	      1.56281138	      0.00000000	      1.03432647	     -0.00000000	      4.10378447	      0.00000000	      0.00000000	      0.00000000	      0.00000000	      0.00000000	      0.00000000	      0.00000000	      0.00000000	      0.00000000	      0.00000000
     22.50300000	    130.33428697	    201.49941599	     12.67064023	      1.56066709	      0.00000000	      1.03418197	     -0.00000000	      4.37121037	      0.00000000	      0.00000000	      0.00000000	      0.00000000	      0.00000000	      0.00000000	      0.00000000	      0.00000000	      0.00000000	      0.00000000
     22.50400000	    123.86831882	    186.36859064	     11.55905441	      1.55866060	      0.00000000	      1.03403080	     -0.00000000	      4.64789949	      0.00000000	      0.00000000	      0.00000000	      0.00000000	      0.00000000	      0.00000000	      0.00000000	      0.00000000	      0.00000000	      0.00000000
     22.50500000	    117.48143133	    171.83794209	     10.44408525	      1.55672303	      0.00000000	      1.03387628	     -0.00000000	      4.92922021	      0.00000000	      0.00000000	      0.00000000	      0.00000000	      0.00000000	      0.00000000	      0.00000000	      0.00000000	      0.00000000	      0.00000000
     22.50600000	    111.09454384	    157.30729354	      9.32911609	      1.55478545	      0.00000000	      1.03372177	     -0.00000000	      5.21054093	      0.00000000	      0.00000000	      0.00000000	      0.00000000	      0.00000000	      0.00000000	      0.00000000	      0.00000000	      0.00000000	      0.00000000
     22.50700000	    104.82202426	    143.36558556	      8.21999229	      1.55291724	      0.00000000	      1.03356527	     -0.00000000	      5.49383676	      0.00000000	      0.00000000	      0.00000000	      0.00000000	      0.00000000	      0.00000000	      0.00000000	      0.00000000	      0.00000000	      0.00000000
     22.50800000	     98.77824049	    130.60175872	      7.12255921	      1.55118774	      0.00000000	      1.03340481	     -0.00000000	      5.78108285	      0.00000000	      0.00000000	      0.00000000	      0.00000000	      0.00000000	      0.00000000	      0.00000000	      0.00000000	      0.00000000	      0.00000000
     22.50900000	     92.73445672	    117.83793189	      6.02512613	      1.54945825	      0.00000000	      1.03324434	     -0.00000000	      6.06832893	      0.00000000	      0.00000000	      0.00000000	      0.00000000	      0.00000000	      0.00000000	      0.00000000	      0.00000000	      0.00000000	      0.00000000
     22.51000000	     86.69067295	    105.07410505	      4.92769305	      1.54772876	      0.00000000	      1.03308388	     -0.00000000	      6.35557501	      0.00000000	      0.00000000	      0.00000000	      0.00000000	      0.00000000	      0.00000000	      0.00000000	      0.00000000	      0.00000000	      0.00000000
     22.51100000	     81.08066709	     94.01547590	      3.87344705	      1.54620557	      0.00000000	      1.03292198	     -0.00000000	      6.64063070	      0.00000000	      0.00000000	      0.00000000	      0.00000000	      0.00000000	      0.00000000	      0.00000000	      0.00000000	      0.00000000	      0.00000000
     22.51200000	     75.47066123	     82.95684675	      2.81920106	      1.54468238	      0.00000000	      1.03276007	     -0.00000000	      6.92568639	      0.00000000	      0.00000000	      0.00000000	      0.00000000	      0.00000000	      0.00000000	      0.00000000	      0.00000000	      0.00000000	      0.00000000
     22.51300000	     69.86065537	     71.89821760	      1.76495507	      1.54315919	      0.00000000	      1.03259817	     -0.00000000	      7.21074207	      0.00000000	      0.00000000	      0.00000000	      0.00000000	      0.00000000	      0.00000000	      0.00000000	      0.00000000	      0.00000000	      0.00000000
     22.51400000	     64.58847800	     61.91918141	      0.75461217	      1.54177028	      0.00000000	      1.03243841	     -0.00000000	      7.48910978	      0.00000000	      0.00000000	      0.00000000	      0.00000000	      0.00000000	      0.00000000	      0.00000000	      0.00000000	      0.00000000	      0.00000000
     22.51500000	     59.48521488	     52.47994171	     -0.23377919	      1.54044852	      0.00000000	      1.03227973	      0.00000000	      7.76413349	      0.00000000	      0.00000000	      0.00000000	      0.00000000	      0.00000000	      0.00000000	      0.00000000	      0.00000000	      0.00000000	      0.00000000
